<svg width="29" height="29" viewBox="0 0 29 29" fill="none" xmlns="http://www.w3.org/2000/svg">
<path d="M14.5724 13.0534C14.4547 13.0416 14.3134 13.0416 14.1839 13.0534C11.3819 12.9592 9.15674 10.6634 9.15674 7.83786C9.15674 4.95341 11.4878 2.61053 14.3841 2.61053C17.2685 2.61053 19.6114 4.95341 19.6114 7.83786C19.5996 10.6634 17.3745 12.9592 14.5724 13.0534Z" stroke="#292D32" stroke-width="1.76599" stroke-linecap="round" stroke-linejoin="round"/>
<path d="M8.68568 17.3978C5.83655 19.305 5.83655 22.4132 8.68568 24.3087C11.9233 26.4749 17.2331 26.4749 20.4707 24.3087C23.3199 22.4014 23.3199 19.2932 20.4707 17.3978C17.2448 15.2432 11.9351 15.2432 8.68568 17.3978Z" stroke="#292D32" stroke-width="1.76599" stroke-linecap="round" stroke-linejoin="round"/>
</svg>
