<svg width="36" height="54" viewBox="0 0 36 54" fill="none" xmlns="http://www.w3.org/2000/svg">
<path d="M26.0899 41.66C26.0899 43.1067 24.2932 45.51 20.6999 48.87C17.1066 52.1833 14.4232 53.84 12.6499 53.84C10.9232 53.84 8.75324 52.9767 6.1399 51.25C3.57324 49.5233 1.6599 47.4933 0.399902 45.16L7.6099 40.19C9.94324 43.4567 11.6466 45.09 12.7199 45.09C13.5132 45.09 14.4932 44.6933 15.6599 43.9C16.8266 43.1067 17.4099 42.36 17.4099 41.66C17.4099 41.4733 16.8499 41.0767 15.7299 40.47C14.6099 39.8167 13.2332 39.0233 11.5999 38.09C10.0132 37.11 8.42657 36.0367 6.8399 34.87C5.25324 33.6567 3.8999 32.1867 2.7799 30.46C1.6599 28.7333 1.0999 26.9833 1.0999 25.21C1.0999 23.4367 2.68657 21.1967 5.8599 18.49C9.03324 15.7833 11.4599 14.43 13.1399 14.43C14.8666 14.43 17.0132 15.2933 19.5799 17.02C22.1932 18.7467 24.1299 20.7767 25.3899 23.11L18.1799 28.08C15.8466 24.8133 14.1432 23.18 13.0699 23.18C12.5099 23.18 11.8099 23.5067 10.9699 24.16C10.1766 24.7667 9.7799 25.3267 9.7799 25.84C9.7799 26.3533 10.6199 27.1467 12.2999 28.22C14.0266 29.2933 15.8932 30.4133 17.8999 31.58C19.9532 32.7 21.8199 34.1933 23.4999 36.06C25.2266 37.88 26.0899 39.7467 26.0899 41.66Z" fill="white"/>
<path d="M22.6058 15.27H31.8458V39.49C31.8458 41.87 32.1258 43.7133 32.6858 45.02C33.2458 46.3267 34.1324 47.47 35.3458 48.45L27.6458 53.84C24.2858 51.18 22.6058 47.4 22.6058 42.5V15.27ZM27.3658 0.639999C27.8791 0.639999 29.0224 1.41 30.7958 2.95C32.5691 4.44333 33.4558 5.47 33.4558 6.03C33.4558 6.54333 32.5458 7.57 30.7258 9.11C28.9524 10.65 27.8091 11.42 27.2958 11.42C26.8291 11.42 25.7091 10.6733 23.9358 9.18C22.1624 7.64 21.2758 6.61333 21.2758 6.1C21.2758 5.54 22.1624 4.49 23.9358 2.95C25.7558 1.41 26.8991 0.639999 27.3658 0.639999Z" fill="white"/>
</svg>
